<svg width="47" height="46" viewBox="0 0 47 46" fill="none" xmlns="http://www.w3.org/2000/svg">
<g clip-path="url(#clip0_15_83)">
<path d="M15.8794 36.5392C15.8794 36.7294 15.6659 36.8816 15.3967 36.8816C15.0904 36.9101 14.8769 36.7579 14.8769 36.5392C14.8769 36.3489 15.0904 36.1967 15.3596 36.1967C15.6381 36.1682 15.8794 36.3204 15.8794 36.5392ZM12.9927 36.1111C12.9277 36.3014 13.1133 36.5201 13.3918 36.5772C13.6331 36.6723 13.9116 36.5772 13.9673 36.387C14.023 36.1967 13.8466 35.978 13.5682 35.8924C13.3268 35.8258 13.0577 35.9209 12.9927 36.1111ZM17.0954 35.9494C16.8262 36.016 16.6405 36.1967 16.6684 36.4155C16.6962 36.6058 16.9376 36.7294 17.216 36.6628C17.4852 36.5962 17.6709 36.4155 17.643 36.2253C17.6152 36.0446 17.3645 35.9209 17.0954 35.9494ZM23.203 -0.5C10.3287 -0.5 0.480408 9.51598 0.480408 22.7089C0.480408 33.2576 6.95931 42.2843 16.2136 45.4613C17.4017 45.6801 17.8194 44.9286 17.8194 44.3104C17.8194 43.7206 17.7915 40.4676 17.7915 38.4701C17.7915 38.4701 11.2941 39.8969 9.92959 35.6355C9.92959 35.6355 8.87143 32.8676 7.34916 32.1542C7.34916 32.1542 5.22356 30.6608 7.49767 30.6894C7.49767 30.6894 9.80892 30.8796 11.0806 33.1434C13.1133 36.815 16.5199 35.7592 17.8472 35.1314C18.0607 33.6095 18.664 32.5537 19.3324 31.9259C14.1437 31.3362 8.90855 30.5657 8.90855 21.4153C8.90855 18.7996 9.61399 17.4869 11.0991 15.8128C10.8578 15.1946 10.0688 12.6454 11.3405 9.35428C13.2804 8.73601 17.7451 11.9225 17.7451 11.9225C19.6015 11.3898 21.5972 11.114 23.5743 11.114C25.5514 11.114 27.547 11.3898 29.4034 11.9225C29.4034 11.9225 33.8681 8.7265 35.8081 9.35428C37.0797 12.6549 36.2907 15.1946 36.0494 15.8128C37.5345 17.4964 38.4442 18.8091 38.4442 21.4153C38.4442 30.5943 32.977 31.3267 27.7883 31.9259C28.6423 32.6774 29.3663 34.1041 29.3663 36.3394C29.3663 39.5449 29.3385 43.5114 29.3385 44.2913C29.3385 44.9096 29.7654 45.661 30.9443 45.4423C40.2264 42.2843 46.5196 33.2576 46.5196 22.7089C46.5196 9.51598 36.0773 -0.5 23.203 -0.5ZM9.50261 32.3064C9.38194 32.4015 9.40979 32.6203 9.56758 32.801C9.7161 32.9532 9.92958 33.0198 10.0503 32.8961C10.1709 32.801 10.1431 32.5822 9.98528 32.4015C9.83676 32.2493 9.62328 32.1827 9.50261 32.3064ZM8.50014 31.5359C8.43517 31.6596 8.52799 31.8118 8.71363 31.9069C8.86214 32.002 9.04779 31.9735 9.11276 31.8403C9.17773 31.7167 9.08491 31.5645 8.89927 31.4693C8.71363 31.4123 8.56512 31.4408 8.50014 31.5359ZM11.5075 34.9222C11.359 35.0458 11.4147 35.3312 11.6282 35.5119C11.8417 35.7307 12.1109 35.7592 12.2315 35.607C12.3522 35.4834 12.2965 35.198 12.1109 35.0173C11.9067 34.7985 11.6282 34.77 11.5075 34.9222ZM10.4494 33.5239C10.3009 33.619 10.3009 33.8663 10.4494 34.0851C10.5979 34.3039 10.8485 34.399 10.9692 34.3039C11.1177 34.1802 11.1177 33.9329 10.9692 33.7141C10.8392 33.4954 10.5979 33.4003 10.4494 33.5239Z" fill="white"/>
</g>
<defs>
<clipPath id="clip0_15_83">
<rect width="47" height="46" fill="white"/>
</clipPath>
</defs>
</svg>
