<svg width="122" height="46" viewBox="0 0 122 46" fill="none" xmlns="http://www.w3.org/2000/svg">
<g clip-path="url(#clip0_13_59)">
<path d="M62.9863 14.9606L68.7905 14.5866C68.9229 15.5326 69.1657 16.2367 69.563 16.7427C70.203 17.5347 71.0857 17.9307 72.2554 17.9307C73.1161 17.9307 73.8003 17.7327 74.2638 17.3147C74.7051 16.9847 74.97 16.4567 74.97 15.9066C74.97 15.3786 74.7272 14.8726 74.3079 14.5426C73.8665 14.1466 72.8292 13.7506 71.1961 13.3985C68.5257 12.8045 66.6057 12.0125 65.4801 11.0004C64.3546 10.0544 63.7145 8.66834 63.7587 7.19427C63.7587 6.18223 64.0677 5.17019 64.6415 4.33415C65.3036 3.38811 66.2084 2.64008 67.2898 2.22206C68.4595 1.71604 70.0926 1.45203 72.1451 1.45203C74.661 1.45203 76.581 1.91405 77.9052 2.86009C79.2294 3.78413 80.0239 5.28019 80.2666 7.32628L74.5286 7.65629C74.3741 6.77625 74.0651 6.13823 73.5575 5.72021C73.0499 5.30219 72.3878 5.10418 71.5271 5.10418C70.8209 5.10418 70.2912 5.25819 69.9381 5.5442C69.6071 5.80821 69.3864 6.20423 69.4085 6.64425C69.4085 6.97426 69.585 7.28228 69.8499 7.48028C70.1368 7.7443 70.8209 7.98631 71.9023 8.20632C74.5727 8.77834 76.4707 9.35037 77.6404 9.94439C78.8101 10.5384 79.6487 11.2644 80.1563 12.1225C80.686 13.0025 80.9508 14.0146 80.9287 15.0486C80.9287 16.2807 80.5756 17.5127 79.8694 18.5468C79.1411 19.6248 78.1259 20.4608 76.9342 20.9669C75.6762 21.5169 74.0872 21.8029 72.1892 21.8029C68.8347 21.8029 66.5174 21.1649 65.2153 19.8668C63.9132 18.5688 63.1407 16.9407 62.9863 14.9606ZM1.39038 21.4729V1.80404H11.5644C13.4403 1.80404 14.8969 1.95805 15.89 2.28806C16.8611 2.59608 17.7218 3.2341 18.2956 4.09214C18.9356 5.03818 19.2446 6.13823 19.2225 7.28228C19.2887 9.21836 18.2956 11.0664 16.5962 12.0345C15.9342 12.4085 15.2059 12.6725 14.4555 12.8045C15.0072 12.9585 15.559 13.2225 16.0445 13.5305C16.4197 13.8386 16.7287 14.1906 17.0156 14.5646C17.3466 14.9386 17.6335 15.3566 17.8763 15.7966L20.8336 21.4949H13.9038L10.6375 15.4446C10.2182 14.6746 9.86505 14.1686 9.53401 13.9266C9.09262 13.6185 8.56295 13.4645 8.03329 13.4645H7.50362V21.4509H1.39038V21.4729ZM7.50362 9.76838H10.0857C10.6375 9.72438 11.1671 9.63638 11.6968 9.50437C12.0941 9.43837 12.4472 9.21836 12.6899 8.88835C13.2858 8.09631 13.1975 6.97426 12.4692 6.29223C12.072 5.96222 11.2996 5.78621 10.1961 5.78621H7.50362V9.76838ZM0 38.3256L5.80427 37.9516C5.93669 38.8976 6.17945 39.6017 6.5767 40.1077C7.19465 40.8997 8.09949 41.3177 9.26918 41.3177C10.1299 41.3177 10.814 41.1197 11.2775 40.7017C11.7189 40.3497 11.9837 39.8437 11.9837 39.2936C11.9837 38.7656 11.741 38.2596 11.3216 37.9296C10.8802 37.5336 9.84298 37.1376 8.18777 36.7855C5.51737 36.1915 3.59732 35.3995 2.47178 34.3874C1.34624 33.4414 0.706223 32.0553 0.750362 30.5813C0.750362 29.5692 1.05933 28.5572 1.63314 27.7212C2.29522 26.7751 3.20007 26.0271 4.28148 25.6091C5.45116 25.103 7.0843 24.839 9.13676 24.839C11.6527 24.839 13.5727 25.3011 14.8969 26.2471C16.2211 27.1931 16.9935 28.6672 17.2363 30.7133L11.4982 31.0433C11.3437 30.1633 11.0347 29.5252 10.5271 29.1072C10.0416 28.6892 9.35745 28.4912 8.49674 28.5132C7.79052 28.5132 7.26085 28.6672 6.90774 28.9752C6.55463 29.2392 6.35601 29.6352 6.37808 30.0753C6.37808 30.4053 6.55463 30.7133 6.81947 30.9113C7.10637 31.1753 7.79052 31.4173 8.87193 31.6373C11.5423 32.2093 13.4403 32.7814 14.61 33.3754C15.7797 33.9694 16.6183 34.6954 17.1259 35.5535C17.6556 36.4335 17.9204 37.4456 17.9204 38.4576C17.9204 39.6897 17.5452 40.8997 16.8611 41.9338C16.1328 43.0118 15.1176 43.8478 13.9258 44.3539C12.6679 44.9039 11.0789 45.1899 9.1809 45.1899C5.82634 45.1899 3.50905 44.5519 2.20695 43.2538C0.904848 41.9338 0.176556 40.3057 0 38.3256H0Z" fill="white"/>
<path d="M29.3524 36.7856L34.6932 38.3917C34.4063 39.7337 33.8104 41.0098 32.9939 42.1319C32.2435 43.1219 31.2504 43.8919 30.1248 44.3979C28.9772 44.904 27.5206 45.168 25.7551 45.168C23.6143 45.168 21.8488 44.86 20.5025 44.2439C19.1342 43.6279 17.9645 42.5279 16.9714 40.9658C15.9783 39.4037 15.4928 37.4016 15.4928 34.9595C15.4928 31.7034 16.3535 29.1953 18.097 27.4572C19.8405 25.7191 22.2902 24.8391 25.4682 24.8391C27.962 24.8391 29.9041 25.3451 31.3386 26.3352C32.7511 27.3472 33.8104 28.8873 34.5166 30.9554L29.1317 32.1434C28.9993 31.6814 28.8007 31.2194 28.5358 30.8234C28.2048 30.3613 27.7855 30.0093 27.2779 29.7453C26.7703 29.4813 26.1965 29.3713 25.6227 29.3713C24.2323 29.3713 23.1729 29.9213 22.4446 31.0434C21.8929 31.8574 21.606 33.1555 21.606 34.9155C21.606 37.0936 21.9371 38.5897 22.5991 39.4037C23.2612 40.2178 24.1881 40.6138 25.402 40.6138C26.5716 40.6138 27.4544 40.2838 28.0503 39.6457C28.6462 38.9637 29.0876 38.0177 29.3524 36.7856ZM41.8216 25.1691H47.9128V32.0554H54.5778V25.1691H60.7131V44.838H54.5778V36.8736H47.9128V44.838H41.8216V25.1691Z" fill="white"/>
<path d="M59.8745 35.0036C59.8745 31.7914 60.7793 29.2833 62.5669 27.5013C64.3546 25.7192 66.8705 24.8171 70.0706 24.8171C73.3589 24.8171 75.8748 25.6972 77.6624 27.4573C79.4501 29.2173 80.3329 31.6814 80.3329 34.8496C80.3329 37.1597 79.9356 39.0297 79.1632 40.5038C78.4128 41.9559 77.2431 43.1439 75.8086 43.936C74.33 44.75 72.4982 45.168 70.3133 45.168C68.0843 45.168 66.2525 44.816 64.796 44.112C63.2952 43.3639 62.0593 42.1979 61.2428 40.7678C60.3379 39.2278 59.8745 37.3137 59.8745 35.0036ZM65.9656 35.0256C65.9656 37.0057 66.3408 38.4357 67.0691 39.3158C67.7974 40.1738 68.8126 40.6138 70.0926 40.6138C71.3947 40.6138 72.4099 40.1958 73.1382 39.3378C73.8665 38.4797 74.2196 36.9617 74.2196 34.7616C74.2196 32.9135 73.8444 31.5494 73.0941 30.7134C72.3437 29.8554 71.3285 29.4373 70.0485 29.4373C68.9229 29.3933 67.8415 29.8774 67.0912 30.7354C66.3408 31.5934 65.9656 33.0235 65.9656 35.0256ZM86.5785 35.0036C86.5785 31.7914 87.4834 29.2833 89.271 27.5013C91.0586 25.7192 93.5745 24.8171 96.7746 24.8171C100.063 24.8171 102.601 25.6972 104.367 27.4573C106.132 29.2173 107.037 31.6814 107.037 34.8496C107.037 37.1597 106.64 39.0297 105.867 40.5038C105.117 41.9559 103.947 43.1439 102.513 43.936C101.034 44.75 99.2022 45.168 97.0174 45.168C94.7884 45.168 92.9566 44.816 91.5 44.112C89.9993 43.3639 88.7634 42.1979 87.9468 40.7678C87.042 39.2278 86.5785 37.3137 86.5785 35.0036ZM92.6697 35.0256C92.6697 37.0057 93.0449 38.4357 93.7732 39.3158C94.5014 40.1738 95.5166 40.6138 96.7967 40.6138C98.0988 40.6138 99.114 40.1958 99.8423 39.3378C100.571 38.4797 100.924 36.9617 100.924 34.7616C100.924 32.9135 100.548 31.5494 99.7981 30.7134C99.0478 29.8554 98.0326 29.4373 96.7525 29.4373C95.627 29.3933 94.5235 29.8774 93.7952 30.7354C93.0449 31.5934 92.6697 33.0235 92.6697 35.0256Z" fill="white"/>
<path d="M106.397 25.1691H112.488V39.9977H122V44.8379H106.375V25.1691H106.397Z" fill="white"/>
<path d="M99.6831 24.0339C105.816 19.4269 107.707 11.6173 103.907 6.59072C100.107 1.56408 92.0554 1.2239 85.9229 5.8309C79.7904 10.4379 77.8993 18.2475 81.6991 23.2741C85.4989 28.3008 93.5506 28.6409 99.6831 24.0339Z" fill="#101010"/>
<path d="M66.0594 12.4395L97.7496 -11.3675L119.678 17.6414L87.988 41.4484L66.0594 12.4395Z" fill="#101010"/>
<path d="M99.6831 24.0339C105.816 19.4269 107.707 11.6173 103.907 6.59072C100.107 1.56408 92.0554 1.2239 85.9229 5.8309C79.7904 10.4379 77.8993 18.2475 81.6991 23.2741C85.4989 28.3008 93.5506 28.6409 99.6831 24.0339Z" fill="#101010"/>
<path d="M74.884 14.3765L97.0745 -2.29333L110.848 15.9275L88.6572 32.5973L74.884 14.3765Z" fill="#101010"/>
<path d="M99.6831 24.0341C105.816 19.4271 107.707 11.6175 103.907 6.59084C100.107 1.56421 92.0554 1.22403 85.9229 5.83102C79.7904 10.438 77.8993 18.2476 81.6991 23.2743C85.4989 28.3009 93.5506 28.6411 99.6831 24.0341Z" fill="#101010" stroke="white" stroke-width="1.8626" stroke-miterlimit="10"/>
<path d="M74.884 14.3765L97.0745 -2.29333L110.848 15.9275L88.6572 32.5973L74.884 14.3765Z" stroke="white" stroke-width="1.8626" stroke-miterlimit="10"/>
<path d="M99.6831 24.0339C105.816 19.4269 107.707 11.6173 103.907 6.59072C100.107 1.56408 92.0554 1.2239 85.9229 5.8309C79.7904 10.4379 77.8993 18.2475 81.6991 23.2741C85.4989 28.3008 93.5506 28.6409 99.6831 24.0339Z" stroke="white" stroke-width="1.8626" stroke-miterlimit="10"/>
<path d="M74.884 14.3765L97.0745 -2.29333L110.848 15.9275L88.6572 32.5973L74.884 14.3765Z" fill="#101010"/>
<path d="M99.6831 24.0341C105.816 19.4271 107.707 11.6175 103.907 6.59084C100.107 1.56421 92.0554 1.22403 85.9229 5.83102C79.7904 10.438 77.8993 18.2476 81.6991 23.2743C85.4989 28.3009 93.5506 28.6411 99.6831 24.0341Z" fill="#101010" stroke="white" stroke-width="1.8626" stroke-miterlimit="10"/>
<path d="M74.884 14.3765L97.0745 -2.29333L110.848 15.9275L88.6572 32.5973L74.884 14.3765Z" stroke="white" stroke-width="1.8626" stroke-miterlimit="10"/>
<path d="M66.0594 12.4395L97.7496 -11.3675L119.678 17.6414L87.988 41.4484L66.0594 12.4395Z" stroke="white" stroke-width="1.8626" stroke-miterlimit="10"/>
<path d="M99.6831 24.0339C105.816 19.4269 107.707 11.6173 103.907 6.59072C100.107 1.56408 92.0554 1.2239 85.9229 5.8309C79.7904 10.4379 77.8993 18.2475 81.6991 23.2741C85.4989 28.3008 93.5506 28.6409 99.6831 24.0339Z" stroke="white" stroke-width="1.8626" stroke-miterlimit="10"/>
<path d="M86.6006 13.4865L88.8075 11.9465L91.5221 15.7966C91.9855 16.4127 92.3386 17.0727 92.6035 17.7987C92.758 18.3488 92.7138 18.9428 92.4931 19.4708C92.2062 20.1308 91.7428 20.6809 91.1248 21.0769C90.3965 21.5829 89.7786 21.8689 89.2489 21.9569C88.7413 22.0449 88.2117 21.9569 87.7261 21.7369C87.1965 21.4729 86.733 21.0989 86.3799 20.6149L88.2779 18.8548C88.4323 19.0968 88.631 19.3168 88.8517 19.4928C89.0062 19.6028 89.1827 19.6688 89.3813 19.6688C89.5358 19.6688 89.6903 19.6028 89.8007 19.5148C90.0213 19.3828 90.1758 19.1188 90.1538 18.8548C90.0876 18.4808 89.9331 18.1067 89.6903 17.8207L86.6006 13.4865ZM93.2214 15.9287L95.2297 14.3446C95.4504 14.6086 95.7373 14.8066 96.0463 14.9166C96.4877 15.0486 96.9512 14.9606 97.3263 14.6746C97.5912 14.4986 97.8119 14.2566 97.9002 13.9486C98.0326 13.5525 97.8119 13.1125 97.4146 12.9805C97.3484 12.9585 97.2822 12.9365 97.216 12.9365C96.9512 12.9145 96.4877 13.0245 95.8036 13.3105C94.678 13.7726 93.7952 13.9486 93.1331 13.8826C92.4931 13.8166 91.8973 13.4865 91.5441 12.9365C91.2793 12.5625 91.1469 12.1225 91.1248 11.6825C91.1248 11.1764 91.2572 10.6704 91.5441 10.2524C91.9635 9.65838 92.4711 9.15236 93.089 8.75634C94.0159 8.11832 94.8325 7.8103 95.5387 7.8103C96.2449 7.8103 96.907 8.14032 97.525 8.82235L95.5387 10.3844C95.1415 9.87839 94.3911 9.76839 93.8835 10.1644L93.8173 10.2304C93.5966 10.3624 93.4421 10.5604 93.3538 10.8024C93.2876 10.9784 93.3318 11.1764 93.4421 11.3305C93.5304 11.4405 93.6628 11.5285 93.8173 11.5285C93.9939 11.5505 94.3028 11.4625 94.7442 11.2645C95.8477 10.8024 96.6863 10.5384 97.2601 10.4504C97.7457 10.3624 98.2533 10.4064 98.7167 10.6044C99.136 10.7804 99.4891 11.0884 99.7319 11.4625C100.041 11.9025 100.217 12.4305 100.24 12.9805C100.262 13.5525 100.107 14.1026 99.7981 14.5866C99.4009 15.1806 98.8933 15.6866 98.2974 16.0827C97.0836 16.9187 96.0904 17.2707 95.2959 17.1387C94.4352 17.0067 93.729 16.5667 93.2214 15.9287Z" fill="white"/>
</g>
<defs>
<clipPath id="clip0_13_59">
<rect width="122" height="45.1679" fill="white"/>
</clipPath>
</defs>
</svg>
